<svg width="265" height="81" viewBox="0 0 265 81" fill="none" xmlns="http://www.w3.org/2000/svg">
<path d="M73.1992 41.1836C73.1836 40.8828 73.2734 40.5898 73.4531 40.3477C76.5273 36.2422 78.1523 31.3516 78.1523 26.2109C78.1523 13.1836 67.543 2.58203 54.5 2.58203C49.2422 2.58203 44.2617 4.26953 40.1055 7.46484C39.8633 7.64844 39.5703 7.74219 39.2656 7.73047C38.8203 7.71484 38.3633 7.70312 37.9141 7.70312C28.4766 7.70312 19.6055 11.375 12.9336 18.043C-0.84375 31.8047 -0.84375 54.1992 12.9336 67.9648C19.6055 74.6289 28.4805 78.3008 37.918 78.3008C47.3555 78.3008 56.2266 74.6289 62.8984 67.9648C69.957 60.9141 73.7109 51.1523 73.1992 41.1836ZM33.8125 69.5039C21.4492 69.5039 11.3945 59.4531 11.3945 47.1016C11.3945 34.75 21.4492 24.6992 33.8125 24.6992C38.8672 24.6992 43.6367 26.3398 47.6094 29.4453C48.1719 29.8828 48.2734 30.6953 47.832 31.2539C47.8242 31.2656 47.8164 31.2773 47.8047 31.2852C48.457 31.8594 49.0703 32.4727 49.6445 33.1211C49.6523 33.1133 49.6641 33.1016 49.6719 33.0938C50.2344 32.6562 51.0469 32.7539 51.4883 33.3164C54.5898 37.2852 56.2344 42.0508 56.2344 47.1016C56.2344 59.4531 46.1758 69.5039 33.8125 69.5039ZM54.9414 13.1914C54.1836 13.1914 53.5625 12.5742 53.5625 11.8164C53.5625 11.0547 54.1836 10.4375 54.9414 10.4375C55.7031 10.4375 56.3203 11.0547 56.3203 11.8164C56.3203 12.5742 55.7031 13.1914 54.9414 13.1914ZM61.832 16.6328C61.0703 16.6328 60.4531 16.0156 60.4531 15.2578C60.4531 14.4961 61.0703 13.8789 61.832 13.8789C62.5898 13.8789 63.2109 14.4961 63.2109 15.2578C63.2109 16.0156 62.5898 16.6328 61.832 16.6328ZM64.2422 50.707C65.0039 50.707 65.6211 51.3242 65.6211 52.0859C65.6211 52.8437 65.0039 53.4609 64.2422 53.4609C63.4844 53.4609 62.8633 52.8437 62.8633 52.0859C62.8633 51.3242 63.4844 50.707 64.2422 50.707Z" fill="white"/>
<path d="M80.7344 26.2109C80.7344 11.7578 68.9648 0 54.5 0C48.8242 0 43.4414 1.77344 38.9023 5.13672C38.5742 5.12891 38.2422 5.125 37.9141 5.125C27.7852 5.125 18.2656 9.0625 11.1055 16.2148C3.94531 23.3711 0 32.8828 0 43.0039C0 53.1211 3.94531 62.6328 11.1055 69.7891C18.2656 76.9414 27.7891 80.8828 37.918 80.8828C48.043 80.8828 57.5664 76.9414 64.7266 69.7891C72.1875 62.332 76.2109 52.0508 75.8008 41.5156C79.0312 37.0391 80.7344 31.7578 80.7344 26.2109ZM12.9336 67.9648C-0.84375 54.1992 -0.84375 31.8047 12.9336 18.043C19.6055 11.375 28.4766 7.70312 37.9141 7.70312C38.3633 7.70312 38.8203 7.71484 39.2695 7.73047C39.5703 7.74219 39.8633 7.64844 40.1055 7.46484C44.2656 4.26953 49.2422 2.58203 54.5 2.58203C67.543 2.58203 78.1523 13.1836 78.1523 26.2109C78.1523 31.3516 76.5273 36.2422 73.457 40.3477C73.2734 40.5898 73.1836 40.8828 73.1992 41.1836C73.7109 51.1523 69.957 60.9141 62.8984 67.9648C56.2266 74.6289 47.3555 78.3008 37.918 78.3008C28.4805 78.3008 19.6055 74.6289 12.9336 67.9648Z" fill="#3D2A20"/>
<path d="M46.0195 31.4766C42.5039 28.7344 38.2852 27.2812 33.8125 27.2812C22.875 27.2812 13.9766 36.1719 13.9766 47.1016C13.9766 58.0313 22.875 66.9219 33.8125 66.9219C44.75 66.9219 53.6523 58.0313 53.6523 47.1016C53.6523 42.6328 52.1992 38.418 49.4492 34.9062C49.0195 34.3555 49.1094 33.5664 49.6445 33.1211C49.0703 32.4727 48.457 31.8594 47.8086 31.2852C47.3594 31.8203 46.5703 31.9102 46.0195 31.4766ZM33.8125 32.4453C25.7266 32.4453 19.1445 39.0195 19.1445 47.1016C19.1445 47.8164 18.5664 48.3906 17.8516 48.3906C17.1367 48.3906 16.5586 47.8164 16.5586 47.1016C16.5586 37.5977 24.3008 29.8633 33.8125 29.8633C34.5273 29.8633 35.1055 30.4414 35.1055 31.1523C35.1055 31.8672 34.5273 32.4453 33.8125 32.4453Z" fill="#FFCB59"/>
<path d="M33.8125 29.8633C24.3008 29.8633 16.5586 37.5977 16.5586 47.1016C16.5586 47.8164 17.1367 48.3906 17.8516 48.3906C18.5664 48.3906 19.1445 47.8164 19.1445 47.1016C19.1445 39.0195 25.7266 32.4453 33.8125 32.4453C34.5273 32.4453 35.1055 31.8672 35.1055 31.1523C35.1055 30.4414 34.5273 29.8633 33.8125 29.8633Z" fill="white"/>
<path d="M64.2422 53.4609C65.0039 53.4609 65.6211 52.8437 65.6211 52.0859C65.6211 51.3242 65.0039 50.707 64.2422 50.707C63.4844 50.707 62.8633 51.3242 62.8633 52.0859C62.8633 52.8437 63.4844 53.4609 64.2422 53.4609Z" fill="#3D2A20"/>
<path d="M49.6719 33.0938C49.6641 33.1016 49.6523 33.1133 49.6445 33.1211C49.1094 33.5664 49.0195 34.3555 49.4492 34.9062C52.1992 38.418 53.6523 42.6328 53.6523 47.1016C53.6523 58.0313 44.75 66.9219 33.8125 66.9219C22.875 66.9219 13.9766 58.0313 13.9766 47.1016C13.9766 36.1719 22.875 27.2812 33.8125 27.2812C38.2852 27.2812 42.5039 28.7344 46.0195 31.4766C46.5703 31.9102 47.3594 31.8203 47.8047 31.2852C47.8164 31.2773 47.8242 31.2656 47.832 31.2539C48.2734 30.6953 48.1719 29.8828 47.6094 29.4453C43.6367 26.3398 38.8672 24.6992 33.8125 24.6992C21.4492 24.6992 11.3945 34.75 11.3945 47.1016C11.3945 59.4531 21.4492 69.5039 33.8125 69.5039C46.1758 69.5039 56.2344 59.4531 56.2344 47.1016C56.2344 42.0508 54.5898 37.2852 51.4883 33.3164C51.0469 32.7539 50.2344 32.6562 49.6719 33.0938Z" fill="#3D2A20"/>
<path d="M122.085 60.91C120.568 60.91 119.483 60.4783 118.83 59.615C118.177 58.7283 117.85 57.4333 117.85 55.73C117.85 54.0267 118.398 50.1067 119.495 43.97H118.935C117.512 45.8367 116.333 48.065 115.4 50.655C114.467 53.245 113.895 55.5783 113.685 57.655C112.542 58.7283 111.223 59.265 109.73 59.265C109.123 59.265 108.587 59.055 108.12 58.635C107.677 58.1917 107.233 57.4333 106.79 56.36C105.927 54.19 105.308 50.06 104.935 43.97H104.375C103.232 48.9867 102.66 52.5217 102.66 54.575C102.66 56.6283 103.01 58.215 103.71 59.335C102.31 60.385 100.852 60.91 99.335 60.91C97.8183 60.91 96.7333 60.4783 96.08 59.615C95.4267 58.7283 95.1 57.4217 95.1 55.695C95.1 53.945 95.835 49.01 97.305 40.89L95.45 37.145C98.0867 35.4417 100.49 34.59 102.66 34.59C103.617 34.59 104.422 34.695 105.075 34.905C105.752 35.0917 106.393 35.465 107 36.025C107.63 36.585 108.143 37.3667 108.54 38.37C109.45 40.6333 110.103 43.935 110.5 48.275H110.92C112.133 44.705 113.813 41.6367 115.96 39.07C117.127 37.6933 118.515 36.6083 120.125 35.815C121.758 35.0217 123.52 34.625 125.41 34.625C127.207 34.625 128.105 35.71 128.105 37.88C128.105 38.6033 127.65 41.2983 126.74 45.965C125.853 50.6083 125.41 53.3733 125.41 54.26C125.41 56.5233 125.76 58.215 126.46 59.335C125.06 60.385 123.602 60.91 122.085 60.91ZM148.095 41.66C149.401 41.66 150.521 42.185 151.455 43.235C152.411 44.285 152.89 45.8133 152.89 47.82C152.89 49.8033 152.54 51.6467 151.84 53.35C151.14 55.03 150.218 56.4067 149.075 57.48C147.931 58.5533 146.636 59.3933 145.19 60C143.743 60.5833 142.261 60.875 140.745 60.875C137.688 60.875 135.273 60.035 133.5 58.355C131.726 56.675 130.84 54.4467 130.84 51.67C130.84 47.9133 132.041 44.8683 134.445 42.535C136.871 40.1783 139.951 39 143.685 39C144.525 39 145.365 39.0933 146.205 39.28C146.461 40.05 146.601 40.925 146.625 41.905C147.115 41.7417 147.605 41.66 148.095 41.66ZM143.79 46.525C143.79 45.8717 143.941 45.1367 144.245 44.32C144.571 43.5033 145.085 42.85 145.785 42.36C142.705 43.0133 140.581 44.2617 139.415 46.105C138.411 47.6917 137.91 49.325 137.91 51.005C137.91 52.685 138.248 54.0383 138.925 55.065C139.625 56.0683 140.511 56.57 141.585 56.57C143.965 56.57 145.645 55.0183 146.625 51.915C144.735 50.7483 143.79 48.9517 143.79 46.525ZM156.209 56.535C156.209 55.6017 156.443 53.7933 156.909 51.11C157.399 48.4267 157.901 45.9767 158.414 43.76L156.594 40.96C159.511 39.6533 161.553 39 162.719 39C163.909 39 164.504 39.7467 164.504 41.24C164.504 42.0567 164.119 43.76 163.349 46.35L163.699 46.525C165.379 41.5083 167.468 39 169.964 39C171.108 39 171.983 39.35 172.589 40.05C173.196 40.75 173.499 41.5317 173.499 42.395C173.499 43.6783 173.021 44.775 172.064 45.685C171.108 46.595 169.673 47.05 167.759 47.05C164.866 47.05 163.419 50.025 163.419 55.975C163.419 57.4217 163.664 58.4833 164.154 59.16C162.708 60.3033 161.378 60.875 160.164 60.875C157.528 60.875 156.209 59.4283 156.209 56.535ZM178.76 60.875C177.383 60.875 176.368 60.5133 175.715 59.79C175.061 59.0667 174.735 58.11 174.735 56.92C174.735 55.73 174.968 53.7933 175.435 51.11C175.925 48.4267 176.426 45.9767 176.94 43.76L175.12 40.96C177.43 39.6533 179.565 39 181.525 39C183.485 39 184.465 39.8867 184.465 41.66C184.465 42.8267 184.196 44.0167 183.66 45.23L184.01 45.405C186.506 41.135 189.68 39 193.53 39C196.353 39 197.765 40.4117 197.765 43.235C197.765 44.4483 197.415 46.5017 196.715 49.395C196.038 52.2883 195.7 54.47 195.7 55.94C195.7 57.41 195.945 58.4833 196.435 59.16C195.198 60.3033 193.891 60.875 192.515 60.875C189.831 60.875 188.49 59.4283 188.49 56.535C188.49 55.4617 188.84 53.6417 189.54 51.075C190.24 48.5083 190.59 46.84 190.59 46.07C190.59 45.02 190.193 44.495 189.4 44.495C188.746 44.495 188 44.7867 187.16 45.37C186.32 45.93 185.503 46.7 184.71 47.68C183.94 48.6367 183.286 49.8617 182.75 51.355C182.213 52.825 181.945 54.33 181.945 55.87C181.945 57.3867 182.19 58.4833 182.68 59.16C181.443 60.3033 180.136 60.875 178.76 60.875ZM212.563 33.47C212.563 34.3567 212.096 35.1267 211.163 35.78C210.23 36.41 209.168 36.725 207.978 36.725C206.788 36.725 205.843 36.4917 205.143 36.025C204.466 35.5583 204.128 34.9283 204.128 34.135C204.128 33.0617 204.63 32.2217 205.633 31.615C206.636 31.0083 207.698 30.705 208.818 30.705C209.938 30.705 210.836 30.9383 211.513 31.405C212.213 31.8717 212.563 32.56 212.563 33.47ZM205.738 60.875C204.291 60.875 203.241 60.5133 202.588 59.79C201.935 59.0667 201.608 57.97 201.608 56.5C201.608 55.0067 202.355 51.0283 203.848 44.565L201.888 41.625C204.805 39.875 207.103 39 208.783 39C209.74 39 210.416 39.21 210.813 39.63C211.21 40.0267 211.408 40.68 211.408 41.59C211.408 41.94 210.976 43.9933 210.113 47.75C209.25 51.5067 208.818 54.19 208.818 55.8C208.818 57.41 209.18 58.53 209.903 59.16C208.596 60.3033 207.208 60.875 205.738 60.875ZM218.852 60.875C217.476 60.875 216.461 60.5133 215.807 59.79C215.154 59.0667 214.827 58.11 214.827 56.92C214.827 55.73 215.061 53.7933 215.527 51.11C216.017 48.4267 216.519 45.9767 217.032 43.76L215.212 40.96C217.522 39.6533 219.657 39 221.617 39C223.577 39 224.557 39.8867 224.557 41.66C224.557 42.8267 224.289 44.0167 223.752 45.23L224.102 45.405C226.599 41.135 229.772 39 233.622 39C236.446 39 237.857 40.4117 237.857 43.235C237.857 44.4483 237.507 46.5017 236.807 49.395C236.131 52.2883 235.792 54.47 235.792 55.94C235.792 57.41 236.037 58.4833 236.527 59.16C235.291 60.3033 233.984 60.875 232.607 60.875C229.924 60.875 228.582 59.4283 228.582 56.535C228.582 55.4617 228.932 53.6417 229.632 51.075C230.332 48.5083 230.682 46.84 230.682 46.07C230.682 45.02 230.286 44.495 229.492 44.495C228.839 44.495 228.092 44.7867 227.252 45.37C226.412 45.93 225.596 46.7 224.802 47.68C224.032 48.6367 223.379 49.8617 222.842 51.355C222.306 52.825 222.037 54.33 222.037 55.87C222.037 57.3867 222.282 58.4833 222.772 59.16C221.536 60.3033 220.229 60.875 218.852 60.875ZM247.791 50.2C247.791 51.39 248.117 52.3583 248.771 53.105C249.447 53.8283 250.276 54.19 251.256 54.19C252.586 54.19 253.776 53.56 254.826 52.3C255.222 50.2233 255.736 46.945 256.366 42.465C253.752 42.465 251.664 43.2233 250.101 44.74C248.561 46.2567 247.791 48.0767 247.791 50.2ZM257.066 63.465C255.969 64.935 254.592 66.09 252.936 66.93C251.279 67.7933 249.529 68.225 247.686 68.225C245.866 68.225 244.396 67.875 243.276 67.175C242.179 66.4983 241.631 65.5767 241.631 64.41C241.631 63.2433 242.109 62.0183 243.066 60.735C244.139 62.3217 245.749 63.115 247.896 63.115C249.296 63.115 250.591 62.5083 251.781 61.295C252.994 60.105 253.799 58.355 254.196 56.045L253.846 55.87C252.189 58.2967 250.066 59.51 247.476 59.51C245.516 59.51 243.976 58.7517 242.856 57.235C241.736 55.7183 241.176 53.7 241.176 51.18C241.176 48.7533 241.841 46.5367 243.171 44.53C244.687 42.22 246.799 40.6217 249.506 39.735C250.999 39.245 252.422 39 253.776 39C255.129 39 256.272 39.0933 257.206 39.28C257.346 39.91 257.427 40.4817 257.451 40.995C258.547 40.2483 259.656 39.875 260.776 39.875C262.386 39.875 263.191 40.7033 263.191 42.36C263.191 44.0167 263.086 45.72 262.876 47.47C262.666 49.1967 262.339 51.0517 261.896 53.035C261.452 55.0183 260.811 56.8967 259.971 58.67C259.154 60.42 258.186 62.0183 257.066 63.465Z" fill="#3D2A20"/>
</svg>
